<?xml version="1.0" encoding="UTF-8" standalone="yes"?>
<svg version="1.1" id="Layer_1" xmlns:x="&amp;ns_extend;" xmlns:i="&amp;ns_ai;" xmlns:graph="&amp;ns_graphs;" xmlns="http://www.w3.org/2000/svg" xmlns:xlink="http://www.w3.org/1999/xlink" x="0px" y="0px" viewBox="0 0 315 288.5978088" style="enable-background:new 0 0 315 288.5978088;" xml:space="preserve">
      <style type="text/css">.st0{fill:#2B4099;}	.st1{fill:#5D77E8;}	.st2{fill:#FFFFFF;}</style>
    <metadata>
              <sfw>
                      <slices/>
            <sliceSourceBounds bottomLeftOrigin="true" height="288.5978088" width="315" x="-7.4713345" y="-297.4728088"/>
                  </sfw>
          </metadata>
    <g id="color_index_2" fill="#2B4099">
              <path d="M44.8147316,32.5376663c-1.1098328,1.1519432-31.7046642,31.6926804-31.7290459,31.7866287&#x9;&#x9;C2.0058737,76.3885498-2.9645889,93.764389,1.8148173,111.0144577l39.1601601,141.3397522&#x9;&#x9;c6.5384369,23.5989075,29.3665543,38.8561401,53.67202,35.8717957l146.5411377-17.992981&#x9;&#x9;c11.3322296-1.3842773,21.1919403-6.4858093,28.6412811-13.8096008l30.7305298-30.7290649L44.8147316,32.5376663z"/>
          </g>
    <g id="color_index_1" fill="#5D77E8">
              <path d="M271.5637207,239.8574982L125.022522,257.8504944&#x9;&#x9;c-24.3054504,2.9843445-47.1335297-12.2728882-53.6719589-35.8718262L32.1903267,80.6389618&#x9;&#x9;C24.1236935,51.524334,43.8252106,22.0466328,73.81147,18.3647823L220.3526611,0.3717872&#x9;&#x9;c24.3054504-2.9843335,47.1335449,12.2728882,53.6719666,35.8718262l39.1602173,141.3397217&#x9;&#x9;C321.2514954,206.6979523,301.5499878,236.1756439,271.5637207,239.8574982z"/>
          </g>
    <g id="color_index_0" fill="#FFFFFF">
              <path d="M229.9638824,141.8976135l-62.2147369,50.1324615&#x9;&#x9;c-12.5646515,10.1245575-34.0191803,2.0315704-38.6181641-14.5673676l-22.772171-82.1908264&#x9;&#x9;c-4.5989761-16.5989456,11.1068344-29.2546463,28.270462-22.7802582l84.9868927,32.0583725&#x9;&#x9;C236.7798004,111.0243759,242.5285187,131.773056,229.9638824,141.8976135z"/>
          </g>
  </svg>